<?xml version="1.0" encoding="UTF-8" standalone="no"?>
<!DOCTYPE svg PUBLIC "-//W3C//DTD SVG 1.1//EN"
 "http://www.w3.org/Graphics/SVG/1.1/DTD/svg11.dtd">
<!-- Generated by graphviz version 2.38.0 (20140413.2041)
 -->
<!-- Title: %3 Pages: 1 -->
<svg width="1498pt" height="548pt"
 viewBox="0.00 0.00 1498.44 548.00" xmlns="http://www.w3.org/2000/svg" xmlns:xlink="http://www.w3.org/1999/xlink">
<g id="graph0" class="graph" transform="scale(1 1) rotate(0) translate(4 544)">
<title>%3</title>
<polygon fill="white" stroke="none" points="-4,4 -4,-544 1494.44,-544 1494.44,4 -4,4"/>
<!-- region_seasonality -->
<g id="node1" class="node"><title>region_seasonality</title>
<ellipse fill="none" stroke="black" cx="76.6932" cy="-522" rx="76.8869" ry="18"/>
<text text-anchor="middle" x="76.6932" y="-518.3" font-family="Times,serif" font-size="14.00">region_seasonality</text>
</g>
<!-- region_report_ui -->
<g id="node2" class="node"><title>region_report_ui</title>
<ellipse fill="none" stroke="black" cx="76.6932" cy="-450" rx="69.5877" ry="18"/>
<text text-anchor="middle" x="76.6932" y="-446.3" font-family="Times,serif" font-size="14.00">region_report_ui</text>
</g>
<!-- region_seasonality&#45;&gt;region_report_ui -->
<g id="edge1" class="edge"><title>region_seasonality&#45;&gt;region_report_ui</title>
<path fill="none" stroke="black" d="M76.6932,-503.697C76.6932,-495.983 76.6932,-486.712 76.6932,-478.112"/>
<polygon fill="black" stroke="black" points="80.1933,-478.104 76.6932,-468.104 73.1933,-478.104 80.1933,-478.104"/>
</g>
<!-- report_ui -->
<g id="node15" class="node"><title>report_ui</title>
<ellipse fill="none" stroke="black" cx="643.693" cy="-378" rx="42.7926" ry="18"/>
<text text-anchor="middle" x="643.693" y="-374.3" font-family="Times,serif" font-size="14.00">report_ui</text>
</g>
<!-- region_report_ui&#45;&gt;report_ui -->
<g id="edge14" class="edge"><title>region_report_ui&#45;&gt;report_ui</title>
<path fill="none" stroke="black" d="M126.474,-437.322C135.817,-435.366 145.528,-433.491 154.693,-432 312.789,-406.279 501.734,-389.796 591.445,-382.823"/>
<polygon fill="black" stroke="black" points="591.925,-386.296 601.627,-382.039 591.388,-379.317 591.925,-386.296"/>
</g>
<!-- basic_faction_selection -->
<g id="node3" class="node"><title>basic_faction_selection</title>
<ellipse fill="none" stroke="black" cx="1225.69" cy="-522" rx="92.8835" ry="18"/>
<text text-anchor="middle" x="1225.69" y="-518.3" font-family="Times,serif" font-size="14.00">basic_faction_selection</text>
</g>
<!-- map_populator -->
<g id="node4" class="node"><title>map_populator</title>
<ellipse fill="none" stroke="black" cx="1225.69" cy="-450" rx="64.189" ry="18"/>
<text text-anchor="middle" x="1225.69" y="-446.3" font-family="Times,serif" font-size="14.00">map_populator</text>
</g>
<!-- basic_faction_selection&#45;&gt;map_populator -->
<g id="edge2" class="edge"><title>basic_faction_selection&#45;&gt;map_populator</title>
<path fill="none" stroke="black" d="M1225.69,-503.697C1225.69,-495.983 1225.69,-486.712 1225.69,-478.112"/>
<polygon fill="black" stroke="black" points="1229.19,-478.104 1225.69,-468.104 1222.19,-478.104 1229.19,-478.104"/>
</g>
<!-- adv_faction_selection -->
<g id="node5" class="node"><title>adv_faction_selection</title>
<ellipse fill="none" stroke="black" cx="1402.69" cy="-450" rx="87.9851" ry="18"/>
<text text-anchor="middle" x="1402.69" y="-446.3" font-family="Times,serif" font-size="14.00">adv_faction_selection</text>
</g>
<!-- basic_faction_selection&#45;&gt;adv_faction_selection -->
<g id="edge3" class="edge"><title>basic_faction_selection&#45;&gt;adv_faction_selection</title>
<path fill="none" stroke="black" d="M1264.54,-505.638C1291.14,-495.116 1326.6,-481.093 1354.93,-469.888"/>
<polygon fill="black" stroke="black" points="1356.23,-473.138 1364.25,-466.205 1353.66,-466.628 1356.23,-473.138"/>
</g>
<!-- server_data_store -->
<g id="node6" class="node"><title>server_data_store</title>
<ellipse fill="none" stroke="black" cx="1409.69" cy="-522" rx="72.5877" ry="18"/>
<text text-anchor="middle" x="1409.69" y="-518.3" font-family="Times,serif" font-size="14.00">server_data_store</text>
</g>
<!-- server_data_store&#45;&gt;adv_faction_selection -->
<g id="edge4" class="edge"><title>server_data_store&#45;&gt;adv_faction_selection</title>
<path fill="none" stroke="black" d="M1407.96,-503.697C1407.19,-495.983 1406.26,-486.712 1405.4,-478.112"/>
<polygon fill="black" stroke="black" points="1408.88,-477.706 1404.4,-468.104 1401.92,-478.403 1408.88,-477.706"/>
</g>
<!-- game_data_model -->
<g id="node7" class="node"><title>game_data_model</title>
<ellipse fill="none" stroke="black" cx="882.693" cy="-522" rx="76.0865" ry="18"/>
<text text-anchor="middle" x="882.693" y="-518.3" font-family="Times,serif" font-size="14.00">game_data_model</text>
</g>
<!-- game_data_model&#45;&gt;region_report_ui -->
<g id="edge8" class="edge"><title>game_data_model&#45;&gt;region_report_ui</title>
<path fill="none" stroke="black" d="M807.645,-519.046C675.197,-514.817 391.577,-502.26 154.693,-468 148.572,-467.115 142.215,-466.021 135.89,-464.82"/>
<polygon fill="black" stroke="black" points="136.506,-461.374 126.016,-462.856 135.141,-468.239 136.506,-461.374"/>
</g>
<!-- game_data_model&#45;&gt;map_populator -->
<g id="edge5" class="edge"><title>game_data_model&#45;&gt;map_populator</title>
<path fill="none" stroke="black" d="M939.356,-509.96C993.051,-499.429 1075.93,-482.995 1147.69,-468 1153.84,-466.716 1160.25,-465.355 1166.64,-463.983"/>
<polygon fill="black" stroke="black" points="1167.59,-467.359 1176.62,-461.83 1166.11,-460.517 1167.59,-467.359"/>
</g>
<!-- map_ui -->
<g id="node8" class="node"><title>map_ui</title>
<ellipse fill="none" stroke="black" cx="1123.69" cy="-378" rx="37.8943" ry="18"/>
<text text-anchor="middle" x="1123.69" y="-374.3" font-family="Times,serif" font-size="14.00">map_ui</text>
</g>
<!-- game_data_model&#45;&gt;map_ui -->
<g id="edge6" class="edge"><title>game_data_model&#45;&gt;map_ui</title>
<path fill="none" stroke="black" d="M951.756,-514.422C990.291,-507.812 1037.31,-494.561 1071.69,-468 1092.29,-452.091 1106.27,-425.535 1114.5,-405.563"/>
<polygon fill="black" stroke="black" points="1117.82,-406.676 1118.18,-396.087 1111.3,-404.139 1117.82,-406.676"/>
</g>
<!-- orders_ui -->
<g id="node9" class="node"><title>orders_ui</title>
<ellipse fill="none" stroke="black" cx="1223.69" cy="-378" rx="44.393" ry="18"/>
<text text-anchor="middle" x="1223.69" y="-374.3" font-family="Times,serif" font-size="14.00">orders_ui</text>
</g>
<!-- game_data_model&#45;&gt;orders_ui -->
<g id="edge7" class="edge"><title>game_data_model&#45;&gt;orders_ui</title>
<path fill="none" stroke="black" d="M946.552,-512.021C990.952,-504.212 1050.72,-490.523 1099.69,-468 1110.01,-463.254 1162.14,-424.937 1195.44,-400.151"/>
<polygon fill="black" stroke="black" points="1197.54,-402.952 1203.46,-394.169 1193.35,-397.34 1197.54,-402.952"/>
</g>
<!-- character_report_ui -->
<g id="node10" class="node"><title>character_report_ui</title>
<ellipse fill="none" stroke="black" cx="643.693" cy="-450" rx="79.0865" ry="18"/>
<text text-anchor="middle" x="643.693" y="-446.3" font-family="Times,serif" font-size="14.00">character_report_ui</text>
</g>
<!-- game_data_model&#45;&gt;character_report_ui -->
<g id="edge9" class="edge"><title>game_data_model&#45;&gt;character_report_ui</title>
<path fill="none" stroke="black" d="M836.894,-507.586C797.869,-496.156 741.64,-479.687 699.896,-467.461"/>
<polygon fill="black" stroke="black" points="700.733,-464.059 690.152,-464.607 698.765,-470.777 700.733,-464.059"/>
</g>
<!-- army_report_ui -->
<g id="node11" class="node"><title>army_report_ui</title>
<ellipse fill="none" stroke="black" cx="806.693" cy="-450" rx="65.7887" ry="18"/>
<text text-anchor="middle" x="806.693" y="-446.3" font-family="Times,serif" font-size="14.00">army_report_ui</text>
</g>
<!-- game_data_model&#45;&gt;army_report_ui -->
<g id="edge10" class="edge"><title>game_data_model&#45;&gt;army_report_ui</title>
<path fill="none" stroke="black" d="M864.682,-504.411C854.933,-495.432 842.731,-484.193 832.038,-474.344"/>
<polygon fill="black" stroke="black" points="834.302,-471.67 824.575,-467.47 829.559,-476.819 834.302,-471.67"/>
</g>
<!-- global_report_ui -->
<g id="node12" class="node"><title>global_report_ui</title>
<ellipse fill="none" stroke="black" cx="959.693" cy="-450" rx="69.5877" ry="18"/>
<text text-anchor="middle" x="959.693" y="-446.3" font-family="Times,serif" font-size="14.00">global_report_ui</text>
</g>
<!-- game_data_model&#45;&gt;global_report_ui -->
<g id="edge11" class="edge"><title>game_data_model&#45;&gt;global_report_ui</title>
<path fill="none" stroke="black" d="M900.941,-504.411C910.818,-495.432 923.181,-484.193 934.015,-474.344"/>
<polygon fill="black" stroke="black" points="936.531,-476.787 941.576,-467.47 931.822,-471.607 936.531,-476.787"/>
</g>
<!-- communication_report_ui -->
<g id="node13" class="node"><title>communication_report_ui</title>
<ellipse fill="none" stroke="black" cx="266.693" cy="-450" rx="102.882" ry="18"/>
<text text-anchor="middle" x="266.693" y="-446.3" font-family="Times,serif" font-size="14.00">communication_report_ui</text>
</g>
<!-- game_data_model&#45;&gt;communication_report_ui -->
<g id="edge12" class="edge"><title>game_data_model&#45;&gt;communication_report_ui</title>
<path fill="none" stroke="black" d="M812.868,-514.678C715.472,-505.627 533.372,-487.861 378.693,-468 369.427,-466.81 359.744,-465.477 350.117,-464.094"/>
<polygon fill="black" stroke="black" points="350.526,-460.616 340.126,-462.639 349.517,-467.543 350.526,-460.616"/>
</g>
<!-- kingdom_report_ui -->
<g id="node14" class="node"><title>kingdom_report_ui</title>
<ellipse fill="none" stroke="black" cx="466.693" cy="-450" rx="79.0865" ry="18"/>
<text text-anchor="middle" x="466.693" y="-446.3" font-family="Times,serif" font-size="14.00">kingdom_report_ui</text>
</g>
<!-- game_data_model&#45;&gt;kingdom_report_ui -->
<g id="edge13" class="edge"><title>game_data_model&#45;&gt;kingdom_report_ui</title>
<path fill="none" stroke="black" d="M820.829,-511.503C755.007,-501.274 647.869,-484.27 555.693,-468 549.032,-466.824 542.097,-465.564 535.169,-464.28"/>
<polygon fill="black" stroke="black" points="535.529,-460.787 525.056,-462.391 534.243,-467.668 535.529,-460.787"/>
</g>
<!-- turn_resolver -->
<g id="node20" class="node"><title>turn_resolver</title>
<ellipse fill="none" stroke="black" cx="1083.69" cy="-90" rx="57.6901" ry="18"/>
<text text-anchor="middle" x="1083.69" y="-86.3" font-family="Times,serif" font-size="14.00">turn_resolver</text>
</g>
<!-- game_data_model&#45;&gt;turn_resolver -->
<g id="edge27" class="edge"><title>game_data_model&#45;&gt;turn_resolver</title>
<path fill="none" stroke="black" d="M949.868,-513.477C981.073,-506.566 1016.17,-493.33 1038.69,-468 1065.57,-437.774 1057.69,-419.447 1057.69,-379 1057.69,-379 1057.69,-379 1057.69,-233 1057.69,-192.553 1068.03,-146.67 1075.66,-118.279"/>
<polygon fill="black" stroke="black" points="1079.13,-118.873 1078.43,-108.302 1072.39,-117.002 1079.13,-118.873"/>
</g>
<!-- ui_integration -->
<g id="node16" class="node"><title>ui_integration</title>
<ellipse fill="none" stroke="black" cx="1149.69" cy="-306" rx="59.5901" ry="18"/>
<text text-anchor="middle" x="1149.69" y="-302.3" font-family="Times,serif" font-size="14.00">ui_integration</text>
</g>
<!-- map_ui&#45;&gt;ui_integration -->
<g id="edge20" class="edge"><title>map_ui&#45;&gt;ui_integration</title>
<path fill="none" stroke="black" d="M1129.99,-360.055C1132.91,-352.176 1136.46,-342.617 1139.74,-333.794"/>
<polygon fill="black" stroke="black" points="1143.08,-334.868 1143.28,-324.275 1136.51,-332.431 1143.08,-334.868"/>
</g>
<!-- orders_ui&#45;&gt;ui_integration -->
<g id="edge21" class="edge"><title>orders_ui&#45;&gt;ui_integration</title>
<path fill="none" stroke="black" d="M1206.9,-361.116C1197.29,-352.027 1185.06,-340.458 1174.38,-330.351"/>
<polygon fill="black" stroke="black" points="1176.6,-327.636 1166.93,-323.307 1171.79,-332.722 1176.6,-327.636"/>
</g>
<!-- character_report_ui&#45;&gt;report_ui -->
<g id="edge15" class="edge"><title>character_report_ui&#45;&gt;report_ui</title>
<path fill="none" stroke="black" d="M643.693,-431.697C643.693,-423.983 643.693,-414.712 643.693,-406.112"/>
<polygon fill="black" stroke="black" points="647.193,-406.104 643.693,-396.104 640.193,-406.104 647.193,-406.104"/>
</g>
<!-- army_report_ui&#45;&gt;report_ui -->
<g id="edge16" class="edge"><title>army_report_ui&#45;&gt;report_ui</title>
<path fill="none" stroke="black" d="M772.919,-434.496C746.394,-423.104 709.453,-407.241 681.859,-395.39"/>
<polygon fill="black" stroke="black" points="683.09,-392.11 672.521,-391.38 680.328,-398.542 683.09,-392.11"/>
</g>
<!-- global_report_ui&#45;&gt;report_ui -->
<g id="edge18" class="edge"><title>global_report_ui&#45;&gt;report_ui</title>
<path fill="none" stroke="black" d="M908.571,-437.675C848.425,-424.352 749.38,-402.412 690.958,-389.47"/>
<polygon fill="black" stroke="black" points="691.412,-385.986 680.892,-387.24 689.898,-392.82 691.412,-385.986"/>
</g>
<!-- communication_report_ui&#45;&gt;report_ui -->
<g id="edge19" class="edge"><title>communication_report_ui&#45;&gt;report_ui</title>
<path fill="none" stroke="black" d="M334.529,-436.405C409.587,-422.468 528.679,-400.355 595.012,-388.039"/>
<polygon fill="black" stroke="black" points="595.997,-391.416 605.19,-386.149 594.719,-384.534 595.997,-391.416"/>
</g>
<!-- kingdom_report_ui&#45;&gt;report_ui -->
<g id="edge17" class="edge"><title>kingdom_report_ui&#45;&gt;report_ui</title>
<path fill="none" stroke="black" d="M504.664,-433.983C533.868,-422.434 574.112,-406.518 603.789,-394.781"/>
<polygon fill="black" stroke="black" points="605.405,-397.906 613.417,-390.974 602.83,-391.397 605.405,-397.906"/>
</g>
<!-- report_ui&#45;&gt;ui_integration -->
<g id="edge22" class="edge"><title>report_ui&#45;&gt;ui_integration</title>
<path fill="none" stroke="black" d="M683.821,-371.449C771.48,-359.322 980.658,-330.384 1086.32,-315.768"/>
<polygon fill="black" stroke="black" points="1087.09,-319.194 1096.52,-314.356 1086.13,-312.26 1087.09,-319.194"/>
</g>
<!-- server_sync -->
<g id="node17" class="node"><title>server_sync</title>
<ellipse fill="none" stroke="black" cx="1153.69" cy="-234" rx="52.7911" ry="18"/>
<text text-anchor="middle" x="1153.69" y="-230.3" font-family="Times,serif" font-size="14.00">server_sync</text>
</g>
<!-- ui_integration&#45;&gt;server_sync -->
<g id="edge23" class="edge"><title>ui_integration&#45;&gt;server_sync</title>
<path fill="none" stroke="black" d="M1150.68,-287.697C1151.12,-279.983 1151.65,-270.712 1152.14,-262.112"/>
<polygon fill="black" stroke="black" points="1155.64,-262.288 1152.72,-252.104 1148.65,-261.888 1155.64,-262.288"/>
</g>
<!-- server_datastore -->
<g id="node18" class="node"><title>server_datastore</title>
<ellipse fill="none" stroke="black" cx="1153.69" cy="-162" rx="68.4888" ry="18"/>
<text text-anchor="middle" x="1153.69" y="-158.3" font-family="Times,serif" font-size="14.00">server_datastore</text>
</g>
<!-- server_sync&#45;&gt;server_datastore -->
<g id="edge24" class="edge"><title>server_sync&#45;&gt;server_datastore</title>
<path fill="none" stroke="black" d="M1153.69,-215.697C1153.69,-207.983 1153.69,-198.712 1153.69,-190.112"/>
<polygon fill="black" stroke="black" points="1157.19,-190.104 1153.69,-180.104 1150.19,-190.104 1157.19,-190.104"/>
</g>
<!-- server_endturn -->
<g id="node19" class="node"><title>server_endturn</title>
<ellipse fill="none" stroke="black" cx="1236.69" cy="-90" rx="63.8893" ry="18"/>
<text text-anchor="middle" x="1236.69" y="-86.3" font-family="Times,serif" font-size="14.00">server_endturn</text>
</g>
<!-- server_sync&#45;&gt;server_endturn -->
<g id="edge25" class="edge"><title>server_sync&#45;&gt;server_endturn</title>
<path fill="none" stroke="black" d="M1185.66,-219.417C1202.06,-210.678 1220.66,-197.628 1230.69,-180 1241.33,-161.325 1242.2,-136.746 1240.76,-118.15"/>
<polygon fill="black" stroke="black" points="1244.22,-117.568 1239.71,-107.982 1237.26,-118.29 1244.22,-117.568"/>
</g>
<!-- server_datastore&#45;&gt;server_endturn -->
<g id="edge26" class="edge"><title>server_datastore&#45;&gt;server_endturn</title>
<path fill="none" stroke="black" d="M1173.36,-144.411C1184.19,-135.279 1197.79,-123.809 1209.61,-113.842"/>
<polygon fill="black" stroke="black" points="1212.06,-116.351 1217.45,-107.228 1207.55,-111 1212.06,-116.351"/>
</g>
<!-- server_datastore&#45;&gt;turn_resolver -->
<g id="edge28" class="edge"><title>server_datastore&#45;&gt;turn_resolver</title>
<path fill="none" stroke="black" d="M1137.1,-144.411C1128.21,-135.519 1117.1,-124.411 1107.32,-114.631"/>
<polygon fill="black" stroke="black" points="1109.71,-112.066 1100.16,-107.47 1104.76,-117.016 1109.71,-112.066"/>
</g>
<!-- resolver_mailer -->
<g id="node21" class="node"><title>resolver_mailer</title>
<ellipse fill="none" stroke="black" cx="1083.69" cy="-18" rx="66.0889" ry="18"/>
<text text-anchor="middle" x="1083.69" y="-14.3" font-family="Times,serif" font-size="14.00">resolver_mailer</text>
</g>
<!-- turn_resolver&#45;&gt;resolver_mailer -->
<g id="edge29" class="edge"><title>turn_resolver&#45;&gt;resolver_mailer</title>
<path fill="none" stroke="black" d="M1083.69,-71.6966C1083.69,-63.9827 1083.69,-54.7125 1083.69,-46.1124"/>
<polygon fill="black" stroke="black" points="1087.19,-46.1043 1083.69,-36.1043 1080.19,-46.1044 1087.19,-46.1043"/>
</g>
</g>
</svg>
